<svg width="200" height="37" viewBox="0 0 200 37" fill="none" xmlns="http://www.w3.org/2000/svg">
<g clip-path="url(#clip0_3_133)">
<path fill-rule="evenodd" clip-rule="evenodd" d="M15.7747 4.729C16.8466 5.80091 16.8466 7.53882 15.7747 8.61073L6.4149 17.9705C5.1949 19.1905 5.1949 21.1855 6.4149 22.4055L15.7747 31.7653C16.8466 32.8372 16.8466 34.5751 15.7747 35.647C14.7028 36.7189 12.9648 36.7189 11.8929 35.647L2.53316 26.2873C-0.830664 22.9234 -0.830663 17.4526 2.53316 14.0888L11.8929 4.729C12.9648 3.65709 14.7028 3.65709 15.7747 4.729Z" fill="white"/>
<path fill-rule="evenodd" clip-rule="evenodd" d="M184.225 4.71528C185.297 3.64337 187.035 3.64337 188.107 4.71528L197.467 14.0751C200.831 17.4389 200.831 22.9097 197.467 26.2735L188.107 35.6333C187.035 36.7052 185.297 36.7052 184.225 35.6333C183.153 34.5614 183.153 32.8235 184.225 31.7516L193.585 22.3918C194.805 21.1718 194.805 19.1768 193.585 17.9568L184.225 8.59702C183.153 7.52511 183.153 5.78719 184.225 4.71528Z" fill="white"/>
<path fill-rule="evenodd" clip-rule="evenodd" d="M31.8871 8.31371C33.291 8.88559 33.9654 10.4873 33.3936 11.8912L25.7905 30.5558C25.2186 31.9597 23.6169 32.6342 22.213 32.0623C20.8091 31.4905 20.1346 29.8888 20.7065 28.4849L28.3096 9.82021C28.8815 8.41631 30.4832 7.74182 31.8871 8.31371Z" fill="white"/>
<path d="M43.6972 32.7867C41.8308 32.0044 40.3486 30.9065 39.2644 29.5066C38.537 28.5734 38.0155 27.5578 37.6999 26.4599C37.4665 25.609 38.1527 24.7718 39.0311 24.7718H46.0715C46.6067 24.7718 47.0871 25.1012 47.3204 25.5953C47.4851 25.9521 47.7321 26.2403 48.0478 26.4599C48.583 26.8167 49.2555 27.0088 50.0789 27.0088C50.6004 27.0088 50.9984 26.8991 51.3004 26.6657C51.6023 26.4324 51.7532 26.158 51.7532 25.8286C51.7532 25.2522 51.4376 24.8405 50.7926 24.5934C50.1613 24.3464 49.0771 24.0719 47.5674 23.77C45.7147 23.4132 44.1913 23.0152 42.9973 22.5897C41.8033 22.1643 40.7603 21.4369 39.8545 20.4076C38.9625 19.3783 38.5096 17.951 38.5096 16.1394C38.5096 14.5612 38.9213 13.1339 39.7585 11.8438C40.5956 10.5538 41.8308 9.53818 43.4639 8.79708C45.0971 8.05599 47.0871 7.68544 49.4202 7.68544C52.8786 7.68544 55.5822 8.53633 57.531 10.2244C59.0544 11.5419 60.0974 13.175 60.6738 15.1239C60.9346 15.9885 60.2484 16.8531 59.3426 16.8531H53.0433C52.5218 16.8531 52.0552 16.5374 51.8081 16.0708C51.6435 15.7414 51.4101 15.467 51.1357 15.2474C50.6553 14.8631 49.9966 14.6847 49.1731 14.6847C48.6516 14.6847 48.2673 14.7808 47.9929 14.9866C47.7184 15.1925 47.5811 15.4807 47.5811 15.8787C47.5811 16.4002 47.8968 16.7845 48.5418 17.0315C49.1731 17.2922 50.1887 17.553 51.5886 17.8275C53.4413 18.1843 54.9921 18.596 56.2684 19.0489C57.5448 19.5018 58.6427 20.2841 59.5897 21.3957C60.5366 22.5074 61.0032 24.0307 61.0032 25.9658C61.0032 27.4755 60.5641 28.8479 59.6857 30.0556C58.8074 31.2633 57.5448 32.224 55.8842 32.9239C54.2373 33.6238 52.3022 33.9669 50.0926 33.9669C47.6635 33.9669 45.5225 33.5689 43.6561 32.7867H43.6972Z" fill="#00E68A"/>
<path d="M90.3726 9.3735V32.2789C90.3726 33.0337 89.755 33.6513 89.0002 33.6513H81.6579C80.903 33.6513 80.2855 33.0337 80.2855 32.2789V29.7399C79.4895 30.9476 78.4464 31.9358 77.1289 32.6906C75.8114 33.4454 74.2469 33.8297 72.4216 33.8297C69.4847 33.8297 67.179 32.8416 65.5322 30.879C63.8853 28.9028 63.0481 26.2403 63.0481 22.8779V9.3735C63.0481 8.61868 63.6657 8.0011 64.4205 8.0011H71.7217C72.4765 8.0011 73.0941 8.61868 73.0941 9.3735V21.6016C73.0941 22.8093 73.4235 23.7837 74.0685 24.4836C74.7135 25.1973 75.5918 25.5541 76.676 25.5541C77.7602 25.5541 78.6798 25.1973 79.3111 24.4836C79.9424 23.77 80.2717 22.8093 80.2717 21.6016V9.3735C80.2717 8.61868 80.8893 8.0011 81.6441 8.0011H88.9865C89.7413 8.0011 90.3589 8.61868 90.3589 9.3735H90.3726Z" fill="#00E68A"/>
<path d="M117.944 10.7733C119.591 12.7496 120.428 15.4121 120.428 18.7744V32.2651C120.428 33.02 119.811 33.6376 119.056 33.6376H111.755C111 33.6376 110.382 33.02 110.382 32.2651V20.0508C110.382 18.8431 110.053 17.8824 109.408 17.1687C108.749 16.4551 107.884 16.0983 106.787 16.0983C105.689 16.0983 104.783 16.4551 104.152 17.1687C103.52 17.8824 103.191 18.8431 103.191 20.0508V32.2789C103.191 33.0337 102.573 33.6513 101.818 33.6513H94.4624C93.7075 33.6513 93.09 33.0337 93.09 32.2789V1.3724C93.09 0.61758 93.7075 0 94.4624 0H101.818C102.573 0 103.191 0.61758 103.191 1.3724V11.9124C103.973 10.7047 105.03 9.7166 106.347 8.96178C107.665 8.20696 109.229 7.82269 111.055 7.82269C113.992 7.82269 116.297 8.81081 117.944 10.7733Z" fill="#00E68A"/>
<path d="M122.995 13.8064C123.914 11.8164 125.19 10.3067 126.796 9.26371C128.402 8.22068 130.2 7.69917 132.203 7.69917C133.864 7.69917 135.305 8.04227 136.499 8.71475C137.693 9.40095 138.613 10.3342 139.244 11.5144V1.3724C139.244 0.61758 139.861 0 140.616 0H147.959C148.713 0 149.331 0.61758 149.331 1.3724V32.2789C149.331 33.0337 148.713 33.6513 147.959 33.6513H140.616C139.861 33.6513 139.244 33.0337 139.244 32.2789V30.1516C138.613 31.3319 137.693 32.2651 136.499 32.9513C135.305 33.6375 133.864 33.9669 132.203 33.9669C130.2 33.9669 128.402 33.4454 126.796 32.4024C125.19 31.3594 123.928 29.836 122.995 27.8597C122.075 25.8698 121.608 23.5367 121.608 20.833C121.608 18.1294 122.075 15.7963 122.995 13.8064ZM138.256 17.6491C137.556 16.8943 136.664 16.51 135.579 16.51C134.495 16.51 133.59 16.8943 132.903 17.6491C132.203 18.4039 131.86 19.4744 131.86 20.833C131.86 22.1917 132.203 23.2622 132.903 24.017C133.603 24.7718 134.495 25.1561 135.579 25.1561C136.664 25.1561 137.569 24.7718 138.256 24.017C138.956 23.2622 139.299 22.1917 139.299 20.833C139.299 19.4744 138.956 18.4039 138.256 17.6491Z" fill="#00E68A"/>
<path d="M157.305 32.3749C155.246 31.3182 153.627 29.7948 152.46 27.8048C151.293 25.8149 150.703 23.4955 150.703 20.8193C150.703 18.1431 151.28 15.8238 152.46 13.8338C153.627 11.8438 155.246 10.3205 157.305 9.26371C159.363 8.20696 161.683 7.67172 164.263 7.67172C166.843 7.67172 169.162 8.20696 171.221 9.26371C173.279 10.3205 174.899 11.8438 176.065 13.8338C177.232 15.8238 177.822 18.1431 177.822 20.8193C177.822 23.4955 177.232 25.8149 176.065 27.8048C174.899 29.7948 173.279 31.3182 171.221 32.3749C169.162 33.4317 166.843 33.9669 164.263 33.9669C161.683 33.9669 159.363 33.4317 157.305 32.3749ZM166.623 24.1268C167.255 23.3857 167.584 22.2878 167.584 20.833C167.584 19.3783 167.268 18.2804 166.623 17.5393C165.992 16.7982 165.196 16.4276 164.263 16.4276C163.329 16.4276 162.533 16.7982 161.902 17.5393C161.271 18.2804 160.941 19.3783 160.941 20.833C160.941 22.2878 161.257 23.3857 161.875 24.1268C162.492 24.8679 163.288 25.2385 164.263 25.2385C165.237 25.2385 165.992 24.8679 166.623 24.1268Z" fill="#00E68A"/>
</g>
<defs>
<clipPath id="clip0_3_133">
<rect width="200" height="36.451" fill="white"/>
</clipPath>
</defs>
</svg>
